<?xml version="1.0" encoding="utf-8"?>
<!-- Generator: Adobe Illustrator 21.0.0, SVG Export Plug-In . SVG Version: 6.00 Build 0)  -->
<svg version="1.1" id="icon" xmlns="http://www.w3.org/2000/svg" xmlns:xlink="http://www.w3.org/1999/xlink" x="0px" y="0px"
	 viewBox="0 0 120 123.8" style="enable-background:new 0 0 120 123.8;" xml:space="preserve">
<style type="text/css">
	.st0{display:none;}
	.st1{display:none;fill:#27377A;}
	.st2{fill:#FFFFFF;}
</style>
<rect class="st0" width="120" height="123.8"/>
<path id="head_1_" class="st1" d="M-148.6-17.8"/>
<path class="st2" d="M46,40L46,40c-2.6,0-4.8-2.1-4.8-4.7V22.7c0-2.6,2.1-4.7,4.7-4.7h0c2.6,0,4.7,2.1,4.7,4.7v12.5
	C50.8,37.9,48.6,40,46,40z"/>
<path class="st2" d="M74,40L74,40c-2.6,0-4.8-2.1-4.8-4.7V22.7c0-2.6,2.1-4.7,4.7-4.7h0c2.6,0,4.7,2.1,4.7,4.7v12.5
	C78.8,37.9,76.6,40,74,40z"/>
<path class="st2" d="M94.5,33.8H80.8v1.5c0,3.7-3,6.8-6.8,6.8s-6.8-3-6.8-6.8v-1.5H52.8v1.5c0,3.7-3,6.8-6.8,6.8s-6.8-3-6.8-6.8
	v-1.5H25.5c-2.9,0-5.3,2.4-5.3,5.3v69c0,2.9,2.4,5.3,5.3,5.3h69c2.9,0,5.3-2.4,5.3-5.3V39C99.8,36.1,97.4,33.8,94.5,33.8z
	 M95.8,108.3c0,0.5-0.6,1-1.3,1h-69c-0.7,0-1.3-0.4-1.3-1V55c0-0.5,0.6-1,1.3-1h69c0.7,0,1.3,0.4,1.3,1V108.3z"/>
<g>
	<path class="st2" d="M49.3,99.3L37.8,88.8c-1-0.9-1.1-2.5-0.2-3.5l0,0c0.9-1,2.5-1.1,3.5-0.2l7.9,7.2c1,0.9,2.6,0.9,3.5-0.1
		l26.2-28c0.9-1,2.5-1.1,3.5-0.1l0,0c1,0.9,1.1,2.5,0.1,3.5L52.8,99.2C51.9,100.2,50.3,100.3,49.3,99.3z"/>
</g>
</svg>
