<?xml version="1.0" encoding="utf-8"?>
<!-- Generator: Adobe Illustrator 21.0.0, SVG Export Plug-In . SVG Version: 6.00 Build 0)  -->
<svg version="1.1" id="Layer_1" xmlns="http://www.w3.org/2000/svg" xmlns:xlink="http://www.w3.org/1999/xlink" x="0px" y="0px"
	 viewBox="0 0 389.6 373.1" style="enable-background:new 0 0 389.6 373.1;" xml:space="preserve">
<style type="text/css">
	.st0{fill:#EC1C23;}
	.st1{fill:#09803F;}
	.st2{fill:#27377A;}
	.st3{font-family:'BaskOldFace';}
	.st4{font-size:47px;}
	.st5{font-size:57px;}
</style>
<g id="Red">
	<g id="person_copy_2">
		
			<ellipse id="head_3_" transform="matrix(0.9578 -0.2875 0.2875 0.9578 -17.6999 104.7708)" class="st0" cx="347.9" cy="112.7" rx="30.9" ry="22.8"/>
		<path id="right_arm_2_" class="st0" d="M320.1,38.8c0,0-30.3,30.8-27,90.3l17.8-15.2C311,113.9,312.3,66.6,320.1,38.8z"/>
		<path id="leftarm_2_" class="st0" d="M386.8,181.5c0,0-43.1,3.4-86.5-37.4l23.1-3.9C323.4,140.2,360.5,169.6,386.8,181.5z"/>
	</g>
	<g id="person_copy">
		
			<ellipse id="head_1_" transform="matrix(0.421 -0.9071 0.9071 0.421 116.1548 250.887)" class="st0" cx="254.6" cy="34.5" rx="30.9" ry="22.8"/>
		<path id="right_arm_1_" class="st0" d="M182.3,4.4c0,0,1.9,43.2,48.6,80.1l0.5-23.4C231.3,61.1,197.9,28.7,182.3,4.4z"/>
		<path id="leftarm_1_" class="st0" d="M330.7,52.7c0,0-28.8,33.7-88.4,35.5l14.3-19.9C256.6,68.3,303.7,62.9,330.7,52.7z"/>
	</g>
	<g id="person_copy_3">
		
			<ellipse id="head_4_" transform="matrix(0.4499 -0.8931 0.8931 0.4499 -14.4404 451.156)" class="st0" cx="359" cy="237.3" rx="22.8" ry="30.9"/>
		<path id="right_arm_3_" class="st0" d="M389.6,165.1c0,0-44.1,0.7-84.2,44.8l24.2,1.4C329.5,211.2,364.2,179,389.6,165.1z"/>
		<path id="leftarm_3_" class="st0" d="M338,310.5c0,0-32.6-28.4-33.8-88l18.9,13.8C323.2,236.2,328.1,283.3,338,310.5z"/>
	</g>
</g>
<g id="Green">
	<g id="person_copy_6">
		
			<ellipse id="head_10_" transform="matrix(0.4663 -0.8846 0.8846 0.4663 -89.9452 104.8548)" class="st1" cx="41.9" cy="127" rx="22.8" ry="30.9"/>
		<path id="right_arm_6_" class="st1" d="M0,203.6c0,0,55.3-4.5,101.3-45.8l-27.7-1.1C73.6,156.7,29.7,192.9,0,203.6z"/>
		<path id="leftarm_6_" class="st1" d="M69.9,56.9c0,0,34.8,38.4,34.8,89l-21.5-15.4C83.3,130.6,80.1,84,69.9,56.9z"/>
	</g>
	<g id="person">
		
			<ellipse id="head" transform="matrix(0.9579 -0.287 0.287 0.9579 -7.0664 40.0148)" class="st1" cx="133" cy="44.1" rx="22.8" ry="30.9"/>
		<path id="right_arm" class="st1" d="M56.1,68.1c0,0,30.8,30.3,90.3,27l-15.2-17.8C131.3,77.2,83.9,75.9,56.1,68.1z"/>
		<path id="leftarm" class="st1" d="M194.8,0c0,0,3.1,42.2-32.6,88.2l-5-22.9C157.2,65.4,184.1,26.9,194.8,0z"/>
	</g>
</g>
<g id="Blue">
	<g id="person_copy_4">
		
			<ellipse id="head_5_" transform="matrix(0.4627 -0.8865 0.8865 0.4627 -225.0582 311.9236)" class="st2" cx="144.8" cy="341.6" rx="30.9" ry="22.8"/>
		<path id="right_arm_4_" class="st2" d="M220.9,373.1c0,0-0.3-43.3-44.8-83l-1.4,25.3C174.8,315.5,189.1,325.7,220.9,373.1z"/>
		<path id="leftarm_4_" class="st2" d="M76,318c0,0,28-33,87.6-34.9l-14.7,19.4C148.8,302.5,103,307.7,76,318z"/>
	</g>
	<g id="person_copy_5">
		
			<ellipse id="head_9_" transform="matrix(0.9535 -0.3015 0.3015 0.9535 -75.0234 28.6359)" class="st2" cx="55.3" cy="257.4" rx="30.9" ry="22.8"/>
		<path id="right_arm_5_" class="st2" d="M87.4,327.3c0,0,25.1-24.4,24.9-84l-17.8,15.2C94.5,258.4,95.2,299.4,87.4,327.3z"/>
		<path id="leftarm_5_" class="st2" d="M14.1,181.7c0,0,53.8,6.5,95.4,44.2l-27.8,1.8C81.8,227.6,40.4,193.7,14.1,181.7z"/>
	</g>
</g>
<text transform="matrix(1 0 0 1 114.3025 165.0628)" class="st0 st3 st4">Moj</text>
<text transform="matrix(1 0 0 1 123.1359 218.5628)" class="st2 st3 st5">KRUG</text>
</svg>
