<?xml version="1.0" encoding="utf-8"?>
<!-- Generator: Adobe Illustrator 21.0.0, SVG Export Plug-In . SVG Version: 6.00 Build 0)  -->
<svg version="1.1" id="Layer_1" xmlns="http://www.w3.org/2000/svg" xmlns:xlink="http://www.w3.org/1999/xlink" x="0px" y="0px"
	 viewBox="0 0 330 126" style="enable-background:new 0 0 330 126;" xml:space="preserve">
<style type="text/css">
	.st0{fill:#FFFFFF;}
</style>
<path id="Vizija" class="st0" d="M109.5,49c0,25.7-15.2,46.5-34,46.5s-34-20.8-34-46.5s15.2-46.5,34-46.5S109.5,23.3,109.5,49z
	 M69,122.7c32.3-5.4,87-73.7,87-73.7l-81,55L54,91.8l-23.5,4.9L69,122.7z M120.5,39.8h-3.4v11.3h3.4V39.8z M118.2,50h70.3v-9h-70.3
	V50z M299.5,38.7H187.4v13.6h112.1V38.7z M133.5,115.8c26.6-4.5,68.3-64.6,68.3-64.6l-65.7,48.3l-15.8-7L109,102.7L133.5,115.8z"/>
</svg>
