<?xml version="1.0" encoding="utf-8"?>
<!-- Generator: Adobe Illustrator 21.0.0, SVG Export Plug-In . SVG Version: 6.00 Build 0)  -->
<svg version="1.1" id="Layer_1" xmlns="http://www.w3.org/2000/svg" xmlns:xlink="http://www.w3.org/1999/xlink" x="0px" y="0px"
	 viewBox="0 0 330 126" style="enable-background:new 0 0 330 126;" xml:space="preserve">
<style type="text/css">
	.st0{fill:#FFFFFF;}
</style>
<path id="Ciljevi" class="st0" d="M101.3,118.5c-69.3-7.3-94-32.3-94-32.3l84.2,12.5L101.3,118.5z M77.6,49.1
	c0,25.6,14.9,46.4,33.3,46.4s33.3-20.8,33.3-46.4S129.2,2.7,110.9,2.7S77.6,23.4,77.6,49.1z M207.8,79.2l57.3-24.2l-0.7-1.6
	l-57.3,24.2L207.8,79.2z M183.9,2.7V82l3-0.8V5.7h132.3v109.8H186.9V97.8c-1,0.5-2,1-3,1.6v19.1h138.3V2.7H183.9z M264.4,44.4
	c6,0,10.9,4.9,10.9,10.9s-4.9,10.9-10.9,10.9c-3.4,0-6.5-1.6-8.4-4.1l-2.8,1.2c2.5,3.5,6.6,5.8,11.3,5.8c7.6,0,13.9-6.2,13.9-13.9
	s-6.2-13.9-13.9-13.9s-13.9,6.2-13.9,13.9c0,0.2,0,0.4,0,0.7l3-1.3C253.9,48.9,258.6,44.4,264.4,44.4z M238.8,55.2
	c0-14.2,11.5-25.7,25.7-25.7s25.7,11.5,25.7,25.7s-11.5,25.7-25.7,25.7c-9.6,0-17.9-5.2-22.3-13l-2.8,1.2
	c4.9,8.8,14.3,14.8,25.1,14.8c15.8,0,28.7-12.9,28.7-28.7s-12.9-28.7-28.7-28.7s-28.7,12.9-28.7,28.7c0,2.3,0.3,4.5,0.8,6.6l2.8-1.2
	C239,58.9,238.8,57.1,238.8,55.2z M264.4,10.2c-24.8,0-45,20.2-45,45c0,4.5,0.7,8.9,1.9,13l2.8-1.2c-1.1-3.8-1.7-7.7-1.7-11.9
	c0-23.2,18.8-42,42-42s42,18.8,42,42c0,23.2-18.8,42-42,42c-16.3,0-30.5-9.3-37.4-22.9l-2.8,1.2c7.4,14.7,22.6,24.8,40.2,24.8
	c24.8,0,45-20.2,45-45C309.4,30.4,289.2,10.2,264.4,10.2z M208,77.7l-0.2,0.1l0.3,0.6c0.3-0.5,0.4-0.8,0.4-0.8L208,77.7z
	 M205.3,78.4L128,98.7l-4.7,19.8c59.5-15.1,77.7-30.9,83.1-37.6L205.3,78.4z"/>
</svg>
