<?xml version="1.0" encoding="utf-8"?>
<!-- Generator: Adobe Illustrator 21.0.0, SVG Export Plug-In . SVG Version: 6.00 Build 0)  -->
<svg version="1.1" id="icon" xmlns="http://www.w3.org/2000/svg" xmlns:xlink="http://www.w3.org/1999/xlink" x="0px" y="0px"
	 viewBox="0 0 120 123.8" style="enable-background:new 0 0 120 123.8;" xml:space="preserve">
<style type="text/css">
	.st0{fill:#FFFFFF;}
</style>
<path class="st0" d="M46,36.2L46,36.2c-2.6,0-4.8-2.1-4.8-4.7V19c0-2.6,2.1-4.7,4.7-4.7l0,0c2.6,0,4.7,2.1,4.7,4.7v12.5
	C50.8,34.1,48.6,36.2,46,36.2z M78.8,31.5V19c0-2.6-2.1-4.7-4.7-4.7l0,0c-2.6,0-4.7,2.1-4.7,4.7v12.5c0,2.6,2.1,4.7,4.7,4.7l0,0
	C76.6,36.2,78.8,34.1,78.8,31.5z M94.6,30H80.9v1.5c0,3.8-3,6.8-6.8,6.8s-6.8-3.1-6.8-6.8V30H52.8v1.5c0,3.8-3,6.8-6.8,6.8
	s-6.8-3.1-6.8-6.8V30H25.5c-2.9,0-5.3,2.4-5.3,5.3v69c0,2.9,2.4,5.3,5.3,5.3h69c2.9,0,5.3-2.4,5.3-5.3v-69
	C99.8,32.4,97.4,30,94.6,30z M95.8,104.6c0,0.6-0.6,1-1.3,1h-69c-0.7,0-1.3-0.5-1.3-1V51.3c0-0.6,0.6-1,1.3-1h69
	c0.7,0,1.3,0.5,1.3,1V104.6z M52.8,95.5l29.5-31.7c0.9-1,0.9-2.6-0.1-3.5l0,0c-1-0.9-2.6-0.9-3.5,0.1l-26.2,28
	c-0.9,1-2.5,1.1-3.5,0.1l-7.9-7.2c-1-0.9-2.6-0.9-3.5,0.2l0,0c-0.9,1-0.9,2.6,0.2,3.5l11.5,10.6C50.3,96.5,51.9,96.5,52.8,95.5z"/>
</svg>
