<?xml version="1.0" encoding="utf-8"?>
<!-- Generator: Adobe Illustrator 21.0.0, SVG Export Plug-In . SVG Version: 6.00 Build 0)  -->
<svg version="1.1" id="icon" xmlns="http://www.w3.org/2000/svg" xmlns:xlink="http://www.w3.org/1999/xlink" x="0px" y="0px"
	 viewBox="0 0 120 123.8" style="enable-background:new 0 0 120 123.8;" xml:space="preserve">
<style type="text/css">
	.st0{fill:#FFFFFF;}
	.st1{fill:#EC1C23;}
</style>
<path class="st0" d="M14.2,42.9c1.9,0,3.4,1.5,3.4,3.4l0,24.3c0.2,0.1,0.3,0.2,0.5,0.3l5.3,4.2l9.6,7.6l0.2,0.2
	c1.5,1.2,3.6,0.9,4.8-0.6l0.2-0.3c1.2-1.5,0.9-3.6-0.6-4.8L36,76l-8.2-6.5L25,67.2c-1.5-1.2-1.7-3.3-0.6-4.8
	c1.2-1.5,3.3-1.7,4.8-0.6l18.7,14.8c0,0,0.1,0.1,0.1,0.1c0.1,0.1,0.2,0.2,0.3,0.2c0.1,0.1,0.1,0.2,0.2,0.2c0.1,0.1,0.1,0.2,0.2,0.3
	c0.1,0.1,0.1,0.2,0.1,0.3c0.1,0.1,0.1,0.2,0.2,0.4c0,0.1,0.1,0.2,0.1,0.2c0,0.1,0.1,0.3,0.1,0.4c0,0.1,0,0.2,0,0.3
	c0,0.1,0,0.2,0,0.2l0,23.6c0,1.9-1.5,3.4-3.4,3.4l-9.4,0c-1.9,0-3.4-1.5-3.4-3.4l0-9.2l-20.3-16c-0.1-0.1-0.2-0.2-0.3-0.2
	c-1-0.6-1.6-1.7-1.6-2.9l0-28.3C10.8,44.5,12.3,42.9,14.2,42.9z M105.8,42.9c-1.9,0-3.4,1.5-3.4,3.4l0,24.3
	c-0.2,0.1-0.3,0.2-0.5,0.3l-5.3,4.2L87,82.7l-0.2,0.2c-1.5,1.2-3.6,0.9-4.8-0.6l-0.2-0.3c-1.2-1.5-0.9-3.6,0.6-4.8L84,76l8.2-6.5
	l2.9-2.3c1.5-1.2,1.7-3.3,0.6-4.8c-1.2-1.5-3.3-1.7-4.8-0.6L72.1,76.7c0,0-0.1,0.1-0.1,0.1c-0.1,0.1-0.2,0.2-0.3,0.2
	c-0.1,0.1-0.1,0.2-0.2,0.2c-0.1,0.1-0.1,0.2-0.2,0.3c-0.1,0.1-0.1,0.2-0.1,0.3c-0.1,0.1-0.1,0.2-0.2,0.4c0,0.1-0.1,0.2-0.1,0.2
	c0,0.1-0.1,0.3-0.1,0.4c0,0.1,0,0.2,0,0.3c0,0.1,0,0.2,0,0.2l0,23.6c0,1.9,1.5,3.4,3.4,3.4l9.4,0c1.9,0,3.4-1.5,3.4-3.4l0-9.2
	l20.3-16c0.1-0.1,0.2-0.2,0.3-0.2c1-0.6,1.6-1.7,1.6-2.9l0-28.3C109.2,44.5,107.7,42.9,105.8,42.9z"/>
<path class="st1" d="M89.5,37.4c0-9.4-7.2-17.1-16-17.1c-5.7,0-10.7,3.2-13.5,8c-2.8-4.8-7.8-8-13.5-8c-8.8,0-16,7.7-16,17.1
	c0,3.2,0.8,6.2,2.3,8.8c4.4,9.7,27,23,27,23s17.9-10.5,25-19.7C87.7,46.4,89.5,42.1,89.5,37.4z M60.9,11.6V3.4
	c0-0.5-0.4-0.9-0.9-0.9l0,0c-0.5,0-0.9,0.4-0.9,0.9v8.1c0,0.5,0.4,0.9,0.9,0.9l0,0C60.5,12.4,60.9,12,60.9,11.6z M33,16.3l-4.7-6.7
	c-0.3-0.4-0.8-0.5-1.2-0.2l0,0c-0.4,0.3-0.5,0.8-0.2,1.2l4.7,6.7c0.3,0.4,0.8,0.5,1.2,0.2h0C33.2,17.3,33.3,16.7,33,16.3z
	 M88.4,17.3l4.7-6.7c0.3-0.4,0.2-0.9-0.2-1.2v0c-0.4-0.3-0.9-0.2-1.2,0.2L87,16.3c-0.3,0.4-0.2,0.9,0.2,1.2l0,0
	C87.6,17.8,88.1,17.7,88.4,17.3z"/>
</svg>
