<?xml version="1.0" encoding="utf-8"?>
<!-- Generator: Adobe Illustrator 21.0.0, SVG Export Plug-In . SVG Version: 6.00 Build 0)  -->
<svg version="1.1" id="icon" xmlns="http://www.w3.org/2000/svg" xmlns:xlink="http://www.w3.org/1999/xlink" x="0px" y="0px"
	 viewBox="0 0 120 75" style="enable-background:new 0 0 120 75;" xml:space="preserve">
<style type="text/css">
	.st0{fill:#09803F;}
</style>
<path class="st0" d="M92.1,45.7c-3.5,7.2-10.6,10.9-15.9,8.4c-5.3-2.6-6.8-10.4-3.3-17.6s10.6-10.9,15.9-8.4S95.6,38.5,92.1,45.7z
	 M83.2,56.9l-6.8,9.2c27.8-0.4,41.5-16,41.5-16C105.2,54.7,83.2,56.9,83.2,56.9z M38.1,27.3c-5.8,0.6-10,7.4-9.2,15.4
	c0.7,7.9,6.1,13.9,11.9,13.4c5.8-0.6,10-7.4,9.2-15.4C49.3,32.7,44,26.7,38.1,27.3z M2,45.6c0,0,11.4,16.7,39,20.7l-5.3-9.6
	C35.6,56.7,14.1,51.8,2,45.6z M50,53.3l5,9.7c10.6-25.1,4.1-43.8,4.1-43.8C57.5,32.7,50,53.3,50,53.3z M63.3,19.3
	c0,0-7,18.5,2.7,43.9l5.3-9.6C71.3,53.6,64.4,32.8,63.3,19.3z M56.1,16.8l-5.7-3.3L50.1,14l5.7,3.3L56.1,16.8z M59.2,14.4l-3.3-5.7
	L55.4,9l3.3,5.7L59.2,14.4z M67.4,9l-0.5-0.3l-3.3,5.7l0.5,0.3L67.4,9z M72.5,14.1l-0.3-0.5l-5.7,3.3l0.3,0.5L72.5,14.1z"/>
</svg>
